<?xml version="1.0" standalone="no"?>
<!DOCTYPE svg PUBLIC "-//W3C//DTD SVG 20010904//EN"
 "http://www.w3.org/TR/2001/REC-SVG-20010904/DTD/svg10.dtd">
<svg version="1.0" xmlns="http://www.w3.org/2000/svg"
 width="454.000000pt" height="454.000000pt" viewBox="0 0 454.000000 454.000000"
 preserveAspectRatio="xMidYMid meet">
<metadata>
Created by potrace 1.11, written by Peter Selinger 2001-2013
</metadata>
<g transform="translate(0.000000,454.000000) scale(0.100000,-0.100000)"
fill="#000000" stroke="none">
<path d="M2035 3954 c-110 -53 -206 -150 -259 -259 -50 -102 -60 -145 -60
-255 -1 -89 3 -112 22 -149 12 -25 22 -49 22 -54 0 -6 -21 -33 -47 -61 -72
-78 -154 -186 -208 -273 -119 -193 -221 -393 -262 -513 -24 -74 -28 -100 -28
-200 0 -114 4 -137 47 -250 43 -113 156 -236 266 -288 32 -16 43 -40 20 -46
-140 -41 -157 -49 -195 -89 -66 -69 -93 -135 -93 -225 0 -71 28 -130 83 -178
l42 -35 -1 -127 c-1 -128 -14 -205 -48 -270 -21 -40 -20 -42 8 -42 16 0 27 7
31 20 3 11 13 20 21 20 11 0 13 -6 9 -20 -6 -19 -2 -20 139 -20 l145 0 -6 98
c-9 143 29 245 73 200 23 -23 44 -115 44 -195 0 -39 3 -78 6 -87 6 -14 71 -16
640 -16 l634 0 0 65 c0 36 3 65 8 64 4 0 21 -28 37 -62 l30 -62 153 -3 c95 -1
152 1 152 7 0 6 -12 32 -28 58 -70 122 -123 262 -137 364 -5 43 -3 49 27 80
64 66 82 114 82 214 0 80 -4 96 -28 140 -16 28 -47 69 -70 93 -46 48 -154 106
-216 117 l-41 7 35 42 c114 139 163 363 125 570 -30 160 -113 370 -206 519
-76 123 -234 307 -350 410 -50 44 -177 128 -222 147 -26 11 -31 17 -26 34 74
229 18 436 -138 512 -69 33 -162 32 -232 -2z m5 -103 c0 -13 -22 -27 -52 -35
-30 -7 -38 10 -16 32 14 14 68 16 68 3z m-110 -68 c0 -17 -40 -67 -86 -108
l-49 -43 18 -50 c25 -73 21 -162 -9 -162 -22 0 -27 19 -26 106 1 72 5 92 31
148 31 63 79 116 107 116 8 0 14 -3 14 -7z m-30 -149 c0 -8 -10 -14 -25 -14
-29 0 -33 15 -8 29 21 11 33 6 33 -15z m515 -678 c29 -18 50 -40 65 -70 20
-41 20 -47 6 -81 -18 -43 -67 -68 -166 -85 -253 -44 -321 -52 -450 -56 -132
-5 -148 -3 -176 14 -34 22 -74 94 -74 134 0 100 333 186 663 173 72 -3 96 -8
132 -29z m-872 -103 c-31 -45 -119 -241 -148 -327 -70 -212 -74 -402 -10 -541
10 -22 58 -79 107 -126 75 -74 86 -88 73 -99 -8 -7 -15 -19 -15 -26 0 -61
-178 99 -234 209 -94 187 -70 376 87 689 75 148 145 263 154 254 3 -2 -3 -17
-14 -33z m707 -745 c0 -52 -24 -88 -59 -88 -11 0 -26 -3 -35 -6 -14 -5 -16 9
-16 120 0 122 1 126 23 130 63 14 61 15 74 -49 7 -33 12 -81 13 -107z m-143
36 c2 -127 -5 -148 -37 -119 -12 11 -28 35 -36 54 -14 34 -20 162 -7 175 4 4
23 6 43 4 l35 -3 2 -111z m-434 -463 l17 -30 -28 9 c-62 17 -72 27 -60 61 l10
30 22 -20 c11 -11 29 -33 39 -50z m81 -567 c20 -19 20 -38 1 -54 -32 -26 -96
18 -81 56 7 19 61 18 80 -2z m-321 -345 c-5 -18 -14 -34 -21 -37 -8 -2 -7 10
3 45 8 26 16 59 17 73 1 16 3 11 5 -12 2 -20 0 -51 -4 -69z"/>
</g>
</svg>
